<svg width="900" height="506" viewBox="0 0 375 506" fill="none" xmlns="http://www.w3.org/2000/svg">
<path d="M318.716 262.243C405.062 336.279 527.168 270.358 548.861 244.718L293.796 -232.22L-179.244 20.7601C-179.379 29.7661 -170.716 58.9273 -134.981 103.525C-90.3125 159.271 2.26827 220.586 73.8982 200.473C240.706 153.636 205.005 164.744 318.716 262.243Z" fill="#EEF7FE"/>
<path fill-rule="evenodd" clip-rule="evenodd" d="M379.379 110.382C377.307 110.382 375.308 110.693 373.423 111.264C369.984 96.7768 356.964 86 341.425 86C325.982 86 313.028 96.6446 309.493 110.996C307.896 110.597 306.227 110.382 304.506 110.382C293.181 110.382 284 119.564 284 130.889C284 142.215 293.181 151.396 304.506 151.396H336.41C338.045 151.646 339.72 151.776 341.425 151.776C343.13 151.776 344.805 151.646 346.441 151.396H379.379C390.704 151.396 399.885 142.215 399.885 130.889C399.885 119.564 390.704 110.382 379.379 110.382Z" fill="#DDEEFB"/>
<path fill-rule="evenodd" clip-rule="evenodd" d="M236.453 53.7844C235.791 53.7844 235.153 53.8835 234.551 54.066C233.453 49.4406 229.296 46 224.335 46C219.404 46 215.268 49.3984 214.14 53.9803C213.63 53.8529 213.097 53.7844 212.547 53.7844C208.931 53.7844 206 56.7157 206 60.3314C206 63.9474 208.931 66.8785 212.547 66.8785H222.733C223.256 66.9584 223.79 67 224.335 67C224.879 67 225.414 66.9584 225.936 66.8785H236.453C240.069 66.8785 243 63.9474 243 60.3314C243 56.7157 240.069 53.7844 236.453 53.7844Z" fill="#DDEEFB"/>
<path fill-rule="evenodd" clip-rule="evenodd" d="M25.4529 138.784C24.7913 138.784 24.153 138.883 23.5512 139.066C22.4532 134.441 18.2962 131 13.3348 131C8.40433 131 4.26822 134.398 3.13955 138.98C2.62972 138.853 2.09669 138.784 1.54746 138.784C-2.06855 138.784 -5 141.716 -5 145.331C-5 148.947 -2.06855 151.879 1.54746 151.879H11.7335C12.2556 151.958 12.7904 152 13.3348 152C13.8793 152 14.4141 151.958 14.9362 151.879H25.4529C29.0687 151.879 32 148.947 32 145.331C32 141.716 29.0687 138.784 25.4529 138.784Z" fill="#DDEEFB"/>
<path fill-rule="evenodd" clip-rule="evenodd" d="M69.4529 21.7844C68.7913 21.7844 68.153 21.8835 67.5512 22.066C66.4532 17.4406 62.2962 14 57.3348 14C52.4043 14 48.2682 17.3984 47.1396 21.9803C46.6297 21.8529 46.0967 21.7844 45.5475 21.7844C41.9315 21.7844 39 24.7157 39 28.3314C39 31.9474 41.9315 34.8785 45.5475 34.8785H55.7335C56.2556 34.9584 56.7904 35 57.3348 35C57.8793 35 58.4141 34.9584 58.9362 34.8785H69.4529C73.0687 34.8785 76 31.9474 76 28.3314C76 24.7157 73.0687 21.7844 69.4529 21.7844Z" fill="#DDEEFB"/>
<path fill-rule="evenodd" clip-rule="evenodd" d="M163.435 265.368L95.5601 265.345C92.0121 265.343 89.1097 262.446 89.1112 258.905L89.1261 214.97C89.1276 211.43 92.0315 208.535 95.58 208.536L163.455 208.56C167.004 208.56 169.906 211.458 169.905 214.999L169.889 258.933C169.888 262.474 166.984 265.369 163.435 265.368Z" fill="#6796B1"/>
<path fill-rule="evenodd" clip-rule="evenodd" d="M95.5798 208.536C95.5798 208.536 94.0132 211.688 97.8361 211.689C101.659 211.69 161.075 211.711 161.075 211.711C161.075 211.711 164.238 212.131 164.239 208.609L95.5798 208.536Z" fill="#AED7E8"/>
<path fill-rule="evenodd" clip-rule="evenodd" d="M162.242 230.566L160.158 234.953C160.158 234.953 112.019 223.621 100.214 225.003C90.3005 226.163 89.2172 221.953 89.124 220.573L89.1112 258.905C89.1097 262.446 92.0121 265.343 95.5601 265.344L163.435 265.367C166.984 265.369 169.888 262.474 169.889 258.933L169.899 230.458C167.111 232.919 162.242 230.566 162.242 230.566Z" fill="#6E9EBA"/>
<path fill-rule="evenodd" clip-rule="evenodd" d="M163.435 265.368V264.644L95.5605 264.62C93.9867 264.62 92.5588 263.979 91.5184 262.941C90.4786 261.902 89.8366 260.478 89.8366 258.908H89.2171L89.8366 258.921V258.908H89.2171L89.8366 258.921V258.906L89.8519 214.971C89.8525 213.4 90.495 211.976 91.5353 210.938C92.5762 209.9 94.0041 209.26 95.5779 209.26V208.823L95.5763 209.26H95.5779V208.823L95.5763 209.26L95.5789 208.563L95.5528 209.259L95.5763 209.26L95.5789 208.563L95.5528 209.259L95.5794 209.26L163.455 209.284C165.029 209.284 166.456 209.925 167.497 210.963C168.537 212.002 169.179 213.427 169.179 214.997H169.81L169.179 214.994V214.997H169.81L169.179 214.994L169.181 215.052L169.905 214.999H169.179L169.163 258.933C169.163 260.503 168.52 261.927 167.48 262.966C166.439 264.003 165.012 264.644 163.438 264.644V265.147L163.439 264.644H163.438V265.147L163.439 264.644L163.397 264.645L163.435 265.368V264.644V265.368L163.473 266.091L163.437 265.396L163.44 266.092L163.473 266.091L163.437 265.396L163.44 266.092L163.437 265.459L163.435 266.092H163.44L163.437 265.459L163.435 266.092H163.438C167.389 266.089 170.611 262.876 170.615 258.933L170.63 214.999L170.628 214.945L169.918 214.998L170.63 214.993L170.628 214.945L169.918 214.998L170.63 214.993L169.946 214.998L170.63 215.001V214.993L169.946 214.998L170.63 215.001V214.997C170.627 211.055 167.407 207.84 163.455 207.835L95.5799 207.811V208.536L95.6071 207.811H95.581H95.5769L95.5779 208.345V207.811H95.5769L95.5779 208.345V207.811C91.6265 207.815 88.4046 211.028 88.4005 214.97L88.3851 258.905H89.1111L88.3851 258.89V258.908C88.3882 262.85 91.6085 266.064 95.56 266.068L163.435 266.092L163.473 266.091L163.435 265.368Z" fill="#22215B"/>
<path fill-rule="evenodd" clip-rule="evenodd" d="M158.297 260.005L100.702 259.985C97.7635 259.984 95.3613 257.584 95.3613 254.653L95.3741 219.227C95.3752 216.296 97.7799 213.898 100.718 213.899L158.313 213.919C161.251 213.92 163.655 216.32 163.654 219.251L163.641 254.676C163.64 257.608 161.235 260.006 158.297 260.005Z" fill="#FFFFFE"/>
<path fill-rule="evenodd" clip-rule="evenodd" d="M100.702 259.985L158.297 260.005C161.235 260.006 163.64 257.608 163.641 254.676L163.648 236.488L160.158 232.108C158.642 230.204 155.743 230.203 154.226 232.106L141.332 248.269L137.003 242.836C135.4 240.824 132.339 240.823 130.735 242.833L126.113 248.626L112.228 231.197C110.637 229.199 107.592 229.208 106.012 231.216L95.3649 244.751L95.3613 254.653C95.3613 257.584 97.7635 259.984 100.702 259.985Z" fill="#FFFFFE"/>
<path fill-rule="evenodd" clip-rule="evenodd" d="M126.112 248.626L112.228 231.197C110.637 229.199 107.592 229.208 106.012 231.216L105.074 232.409L125.093 254.714C125.093 254.714 127.326 253.228 126.112 248.626Z" fill="#CBE5E9"/>
<path fill-rule="evenodd" clip-rule="evenodd" d="M140.621 256.19C140.621 256.19 144.297 253.587 141.332 248.269L137.003 242.836C135.4 240.824 132.339 240.823 130.735 242.833L129.957 243.808L140.621 256.19Z" fill="#CBE5E9"/>
<path fill-rule="evenodd" clip-rule="evenodd" d="M160.158 232.108C158.642 230.204 155.743 230.203 154.226 232.106L153.827 232.605L163.644 245.484L163.648 236.488L160.158 232.108Z" fill="#CBE5E9"/>
<path fill-rule="evenodd" clip-rule="evenodd" d="M100.702 259.985L100.702 260.709L158.296 260.729H158.307L158.299 260.074V260.729H158.307L158.299 260.074V260.729C161.64 260.726 164.363 258.01 164.367 254.676L164.373 236.488C164.373 236.324 164.318 236.166 164.215 236.037L160.726 231.657C159.826 230.526 158.502 229.953 157.191 229.955C155.882 229.953 154.559 230.525 153.658 231.655L141.332 247.105L137.571 242.385C136.628 241.199 135.242 240.6 133.868 240.602C132.496 240.6 131.111 241.198 130.167 242.382L126.113 247.463L112.797 230.747C111.862 229.572 110.489 228.978 109.128 228.98C107.758 228.978 106.376 229.58 105.442 230.769L94.7941 244.304C94.6947 244.43 94.6394 244.589 94.6394 244.751L94.6359 254.652V254.648V254.654C94.6389 257.988 97.3601 260.705 100.702 260.709L100.702 259.985V259.261C99.4336 259.26 98.2832 258.744 97.4435 257.907C96.6049 257.068 96.0873 255.921 96.0873 254.654H95.6424L96.0873 254.657V254.654H95.6424L96.0873 254.657V254.653L96.0909 245.001L106.583 231.663C107.234 230.837 108.175 230.43 109.128 230.428C110.075 230.43 111.009 230.832 111.661 231.648L125.545 249.077C125.682 249.249 125.893 249.35 126.113 249.35C126.333 249.35 126.543 249.249 126.68 249.077L131.303 243.284C131.962 242.458 132.909 242.051 133.868 242.05C134.828 242.051 135.775 242.459 136.436 243.286L140.764 248.719C140.901 248.891 141.111 248.992 141.332 248.992C141.552 248.992 141.762 248.891 141.899 248.719L154.794 232.557C155.41 231.785 156.294 231.405 157.191 231.403C158.089 231.405 158.973 231.785 159.59 232.558L162.922 236.741L162.916 254.676C162.915 255.942 162.397 257.09 161.558 257.927C160.718 258.764 159.567 259.281 158.299 259.281H158.288L158.297 259.935V259.281H158.288L158.297 259.935V259.281L100.702 259.261V259.985Z" fill="#3F234F"/>
<path fill-rule="evenodd" clip-rule="evenodd" d="M158.297 260.005V259.281L100.702 259.261C99.4336 259.26 98.2832 258.744 97.4435 257.907C96.6049 257.068 96.0873 255.921 96.0873 254.654H95.9491L96.0873 254.655V254.654H95.9491L96.0873 254.655L95.4095 254.654L96.0873 254.668V254.655L95.4095 254.654L96.0873 254.668V254.653L96.0996 219.228C96.1001 217.961 96.6182 216.814 97.4568 215.976C98.297 215.14 99.4474 214.623 100.716 214.623V214.185L100.715 214.623H100.716V214.185L100.715 214.623L100.717 213.926L100.691 214.623L100.715 214.623L100.717 213.926L100.691 214.623L100.718 214.623L158.312 214.643C159.582 214.644 160.732 215.16 161.572 215.997C162.41 216.835 162.928 217.983 162.928 219.25H163.56L162.928 219.247V219.25H163.56L162.928 219.247L162.93 219.305L163.654 219.251H162.928L162.916 254.676C162.915 255.942 162.397 257.09 161.558 257.928C160.718 258.764 159.567 259.281 158.299 259.281V259.908L158.302 259.281H158.299V259.908L158.302 259.281L158.24 259.283L158.297 260.005V259.281V260.005L158.354 260.726L158.298 260.017L158.303 260.729L158.354 260.726L158.298 260.017L158.303 260.729L158.298 260.046L158.295 260.729H158.303L158.298 260.046L158.295 260.729H158.299C161.64 260.726 164.363 258.01 164.367 254.676L164.379 219.252L164.377 219.197L163.668 219.25L164.379 219.245L164.377 219.197L163.668 219.25L164.379 219.245L163.695 219.25L164.379 219.253V219.245L163.695 219.25L164.379 219.253V219.25C164.377 215.916 161.655 213.199 158.313 213.195L100.718 213.175V213.899L100.745 213.176L100.72 213.175H100.715L100.716 213.711V213.175H100.715L100.716 213.711V213.175C97.3755 213.178 94.6522 215.893 94.6487 219.227L94.6359 254.652L95.3613 254.653L94.6359 254.638V254.654C94.6389 257.988 97.3601 260.705 100.702 260.709L158.296 260.729L158.354 260.726L158.297 260.005Z" fill="#3F234F"/>
<path fill-rule="evenodd" clip-rule="evenodd" d="M149.629 227.503C149.628 230.659 147.062 233.217 143.899 233.216C140.735 233.215 138.171 230.655 138.172 227.499C138.173 224.342 140.739 221.784 143.903 221.785C147.066 221.786 149.63 224.346 149.629 227.503Z" fill="#99D3D1"/>
<path fill-rule="evenodd" clip-rule="evenodd" d="M143.899 231.47C141.034 231.469 138.667 229.367 138.246 226.626C138.202 226.911 138.172 227.201 138.172 227.499C138.171 230.655 140.735 233.215 143.899 233.216C147.062 233.217 149.628 230.659 149.629 227.503C149.629 227.205 149.6 226.915 149.556 226.63C149.132 229.371 146.764 231.471 143.899 231.47Z" fill="#46A09A"/>
<path fill-rule="evenodd" clip-rule="evenodd" d="M149.629 227.503L148.903 227.502C148.903 230.258 146.663 232.492 143.901 232.492H143.9L143.874 232.492L143.899 233.216V232.492C141.137 232.491 138.897 230.256 138.898 227.5H138.467L138.898 227.502V227.5H138.467L138.898 227.502L138.197 227.5L138.897 227.527L138.898 227.502L138.197 227.5L138.897 227.527L138.898 227.499C138.898 224.743 141.139 222.509 143.901 222.509H143.902V221.805L143.867 222.508L143.902 222.509V221.805L143.867 222.508L143.902 222.509C146.664 222.509 148.904 224.744 148.903 227.5V227.52L149.629 227.503L148.903 227.502L149.629 227.503L150.354 227.485L149.692 227.501L150.354 227.5V227.485L149.692 227.501L150.354 227.5H150.291H150.354H150.291H150.354C150.354 223.944 147.467 221.062 143.903 221.061V221.785L143.938 221.062L143.902 221.061H143.901C140.337 221.061 137.448 223.942 137.446 227.498L138.172 227.499L137.447 227.47L137.446 227.497V227.502L137.971 227.5H137.446V227.502L137.971 227.5H137.446C137.447 231.056 140.334 233.938 143.898 233.939H143.924L143.9 233.256V233.939H143.924L143.9 233.256V233.939H143.901C147.465 233.939 150.353 231.059 150.354 227.503V227.485L149.629 227.503Z" fill="#3F234F"/>
<path fill-rule="evenodd" clip-rule="evenodd" d="M159.407 265.368L91.5314 265.345C87.9829 265.343 85.0805 262.446 85.082 258.905L85.0974 214.97C85.0984 211.43 88.0023 208.535 91.5508 208.536L159.426 208.56C162.975 208.56 165.877 211.458 165.875 214.999L165.86 258.933C165.859 262.474 162.955 265.369 159.407 265.368Z" fill="#6796B1"/>
<path fill-rule="evenodd" clip-rule="evenodd" d="M91.5507 208.536C91.5507 208.536 89.9846 211.688 93.807 211.689C97.6294 211.69 157.046 211.711 157.046 211.711C157.046 211.711 160.209 212.131 160.21 208.609L91.5507 208.536Z" fill="#AED7E8"/>
<path fill-rule="evenodd" clip-rule="evenodd" d="M158.214 230.566L156.128 234.953C156.128 234.953 107.99 223.621 96.1853 225.003C86.2714 226.163 85.188 221.953 85.0953 220.573L85.082 258.905C85.0805 262.446 87.9829 265.343 91.5314 265.344L159.407 265.367C162.955 265.369 165.859 262.474 165.86 258.933L165.87 230.458C163.082 232.919 158.214 230.566 158.214 230.566Z" fill="#6E9EBA"/>
<path fill-rule="evenodd" clip-rule="evenodd" d="M159.407 265.368V264.644L91.5314 264.62C89.9576 264.62 88.5302 263.979 87.4894 262.941C86.4495 261.902 85.808 260.478 85.8075 258.908V258.907L85.1604 258.907L85.8075 258.917V258.907L85.1604 258.907L85.8075 258.917V258.906L85.8229 214.971C85.8234 213.4 86.4664 211.976 87.5062 210.938C88.5476 209.9 89.9755 209.26 91.5493 209.26V208.82L91.5478 209.26H91.5493V208.82L91.5478 209.26L91.5498 208.563L91.5237 209.259L91.5478 209.26L91.5498 208.563L91.5237 209.259L91.5509 209.26L159.426 209.284C160.999 209.284 162.427 209.925 163.468 210.963C164.507 212.002 165.149 213.426 165.149 214.996H165.665L165.149 214.994V214.996H165.665L165.149 214.994L165.15 215.035L165.875 214.999H165.149L165.135 258.933C165.134 260.503 164.491 261.927 163.451 262.966C162.41 264.003 160.983 264.644 159.409 264.644V265.151L159.411 264.644H159.409V265.151L159.411 264.644L159.369 264.645L159.407 265.368V264.644V265.368L159.445 266.091L159.408 265.396L159.411 266.092L159.445 266.091L159.408 265.396L159.411 266.092L159.408 265.46L159.406 266.092H159.411L159.408 265.46L159.406 266.092H159.409C163.36 266.089 166.581 262.876 166.586 258.933L166.601 214.999L166.6 214.962L165.906 214.997L166.601 214.994L166.6 214.962L165.906 214.997L166.601 214.994L165.967 214.997L166.601 214.999V214.994L165.967 214.997L166.601 214.999V214.996C166.598 211.054 163.378 207.84 159.426 207.835L91.5514 207.811L91.5509 208.536L91.578 207.811H91.5524H91.5478L91.5493 208.348V207.811H91.5478L91.5493 208.348V207.811C87.5979 207.815 84.3755 211.028 84.3714 214.97L84.3566 258.905H85.082L84.3566 258.894V258.908C84.3591 262.85 87.5795 266.064 91.5309 266.068L159.406 266.092L159.445 266.091L159.407 265.368Z" fill="#22215B"/>
<path fill-rule="evenodd" clip-rule="evenodd" d="M154.268 260.005L96.6732 259.985C93.735 259.984 91.3317 257.584 91.3328 254.653L91.3451 219.227C91.3461 216.296 93.7513 213.898 96.6891 213.899L154.284 213.919C157.223 213.92 159.625 216.32 159.625 219.251L159.612 254.676C159.611 257.608 157.206 260.006 154.268 260.005Z" fill="#FFFFFE"/>
<path fill-rule="evenodd" clip-rule="evenodd" d="M96.6732 259.985L154.268 260.005C157.206 260.006 159.611 257.608 159.612 254.676L159.619 236.488L156.129 232.108C154.612 230.204 151.715 230.203 150.197 232.106L137.303 248.269L132.974 242.836C131.372 240.824 128.31 240.823 126.706 242.833L122.084 248.626L108.2 231.197C106.608 229.199 103.563 229.208 101.984 231.216L91.3363 244.751L91.3328 254.653C91.3317 257.584 93.735 259.984 96.6732 259.985Z" fill="#FFFFFE"/>
<path fill-rule="evenodd" clip-rule="evenodd" d="M122.084 248.626L108.199 231.197C106.608 229.199 103.563 229.208 101.984 231.216L101.045 232.409L121.064 254.714C121.064 254.714 123.297 253.228 122.084 248.626Z" fill="#CBE5E9"/>
<path fill-rule="evenodd" clip-rule="evenodd" d="M136.592 256.19C136.592 256.19 140.269 253.587 137.302 248.269L132.974 242.836C131.372 240.824 128.31 240.823 126.706 242.833L125.928 243.808L136.592 256.19Z" fill="#CBE5E9"/>
<path fill-rule="evenodd" clip-rule="evenodd" d="M156.129 232.108C154.613 230.204 151.715 230.203 150.197 232.106L149.799 232.605L159.615 245.484L159.618 236.488L156.129 232.108Z" fill="#CBE5E9"/>
<path fill-rule="evenodd" clip-rule="evenodd" d="M96.6731 259.985V260.709L154.268 260.729H154.279L154.27 260.074V260.729H154.279L154.27 260.074V260.729C157.611 260.726 160.334 258.01 160.337 254.676L160.344 236.488C160.344 236.324 160.289 236.166 160.186 236.038L156.697 231.657C155.797 230.526 154.473 229.953 153.162 229.955C151.852 229.953 150.53 230.525 149.629 231.655L137.303 247.105L133.542 242.385C132.599 241.199 131.213 240.6 129.839 240.602C128.467 240.6 127.082 241.198 126.138 242.382L122.084 247.463L108.768 230.747C107.833 229.572 106.459 228.978 105.099 228.98C103.73 228.978 102.347 229.58 101.413 230.769L90.7654 244.304C90.6655 244.43 90.6108 244.589 90.6103 244.751L90.6072 254.652V254.648V254.654C90.6097 257.988 93.3314 260.705 96.6731 260.709V259.985L96.6736 259.261C95.4044 259.26 94.2545 258.744 93.4143 257.907C92.5757 257.068 92.0586 255.92 92.0581 254.654H91.6137L92.0581 254.657V254.654H91.6137L92.0581 254.657V254.653L92.0617 245.001L102.555 231.663C103.205 230.837 104.146 230.43 105.099 230.428C106.046 230.43 106.98 230.832 107.632 231.648L121.516 249.077C121.653 249.249 121.863 249.35 122.084 249.35C122.304 249.35 122.515 249.249 122.652 249.077L127.274 243.284C127.933 242.458 128.88 242.051 129.839 242.05C130.799 242.051 131.747 242.459 132.406 243.286L136.734 248.719C136.871 248.891 137.082 248.992 137.302 248.992C137.523 248.992 137.733 248.891 137.87 248.719L150.764 232.557C151.381 231.785 152.265 231.405 153.162 231.403C154.06 231.405 154.945 231.785 155.561 232.558L158.893 236.741L158.886 254.676C158.886 255.942 158.368 257.09 157.529 257.927C156.689 258.764 155.539 259.281 154.27 259.281H154.26L154.268 259.934V259.281H154.26L154.268 259.934V259.281L96.6736 259.261L96.6731 259.985Z" fill="#3F234F"/>
<path fill-rule="evenodd" clip-rule="evenodd" d="M154.268 260.005V259.281L96.6736 259.261C95.4044 259.26 94.2545 258.744 93.4143 257.907C92.5757 257.068 92.0586 255.921 92.0581 254.654H91.6199L92.0581 254.656V254.654H91.6199L92.0581 254.656L91.3716 254.654L92.0581 254.672V254.656L91.3716 254.654L92.0581 254.672V254.653L92.0709 219.228C92.0714 217.961 92.589 216.814 93.4282 215.976C94.2683 215.14 95.4187 214.623 96.6874 214.623V214.187L96.6859 214.623H96.6874V214.187L96.6859 214.623L96.6879 213.927L96.6623 214.623L96.6859 214.623L96.6879 213.927L96.6623 214.623L96.6889 214.623L154.284 214.643C155.553 214.644 156.703 215.16 157.543 215.997C158.382 216.835 158.899 217.983 158.899 219.25H159.341L158.899 219.249V219.25H159.341L158.899 219.249L158.9 219.287L159.625 219.251H158.899L158.886 254.676C158.886 255.942 158.368 257.09 157.529 257.928C156.689 258.764 155.539 259.281 154.27 259.281V259.906L154.273 259.281H154.27V259.906L154.273 259.281L154.211 259.283L154.268 260.005V259.281V260.005L154.325 260.726L154.269 260.017L154.274 260.729L154.325 260.726L154.269 260.017L154.274 260.729L154.269 260.046L154.266 260.729H154.274L154.269 260.046L154.266 260.729H154.27C157.611 260.726 160.334 258.01 160.337 254.676L160.35 219.252L160.349 219.215L159.646 219.25L160.35 219.245L160.349 219.215L159.646 219.25L160.35 219.245L159.682 219.25L160.35 219.251V219.245L159.682 219.25L160.35 219.251V219.25C160.347 215.916 157.626 213.199 154.284 213.195L96.6895 213.175L96.6889 213.899L96.7161 213.176L96.6905 213.175H96.6859L96.6874 213.711V213.175H96.6859L96.6874 213.711V213.175C93.3463 213.178 90.6236 215.893 90.6195 219.227L90.6072 254.652L91.3326 254.653L90.6072 254.634V254.654C90.6097 257.988 93.3314 260.705 96.6731 260.709L154.268 260.729L154.325 260.726L154.268 260.005Z" fill="#3F234F"/>
<path fill-rule="evenodd" clip-rule="evenodd" d="M145.6 227.503C145.599 230.659 143.033 233.217 139.87 233.216C136.706 233.215 134.142 230.655 134.143 227.499C134.144 224.342 136.71 221.784 139.873 221.785C143.037 221.786 145.601 224.346 145.6 227.503Z" fill="#99D3D1"/>
<path fill-rule="evenodd" clip-rule="evenodd" d="M139.871 231.47C137.005 231.469 134.638 229.367 134.217 226.626C134.173 226.911 134.143 227.201 134.143 227.499C134.142 230.655 136.706 233.215 139.87 233.216C143.033 233.217 145.599 230.659 145.6 227.503C145.6 227.205 145.57 226.915 145.526 226.63C145.103 229.371 142.736 231.471 139.871 231.47Z" fill="#46A09A"/>
<path fill-rule="evenodd" clip-rule="evenodd" d="M145.6 227.503L144.875 227.502C144.874 230.258 142.634 232.492 139.872 232.492H139.871L139.844 232.492L139.87 233.216V232.492C137.107 232.491 134.869 230.256 134.869 227.5V227.5H134.178L134.869 227.518V227.5H134.178L134.869 227.518V227.499C134.869 224.743 137.109 222.509 139.872 222.509H139.873V221.805L139.838 222.508L139.873 222.509V221.805L139.838 222.508L139.873 222.509C142.635 222.509 144.875 224.745 144.875 227.501V227.519L145.6 227.503L144.875 227.502L145.6 227.503L146.326 227.486L145.642 227.502H146.326V227.486L145.642 227.502H146.326V227.501C146.325 223.945 143.438 221.062 139.874 221.061L139.873 221.785L139.908 221.062L139.873 221.061H139.872C136.308 221.061 133.419 223.942 133.418 227.498L134.143 227.499L133.418 227.479V227.5C133.418 231.056 136.305 233.938 139.869 233.939H139.894L139.871 233.256V233.939H139.894L139.871 233.256V233.939H139.872C143.435 233.939 146.324 231.059 146.326 227.503V227.486L145.6 227.503Z" fill="#3F234F"/>
<path fill-rule="evenodd" clip-rule="evenodd" d="M192.792 239.062L177.438 223.743C176.706 223.013 175.52 223.013 174.789 223.743L159.434 239.062C158.255 240.239 159.091 242.253 160.759 242.253H162.555C163.59 242.253 164.429 243.089 164.429 244.122V262.875C164.429 263.907 165.267 264.743 166.302 264.743H185.925C186.959 264.743 187.798 263.907 187.798 262.875V244.122C187.798 243.089 188.636 242.253 189.671 242.253H191.467C193.136 242.253 193.971 240.239 192.792 239.062Z" fill="#F35656"/>
<path fill-rule="evenodd" clip-rule="evenodd" d="M187.798 262.875V244.121C187.798 243.089 188.637 242.253 189.671 242.253H191.467C193.136 242.253 193.971 240.239 192.792 239.062L190.677 236.952C190.771 238.619 190.438 240.128 188.918 240.128C185.518 240.128 185.906 244.29 185.906 248.936C185.906 252.46 185.898 260.881 185.894 264.743H185.925C186.959 264.743 187.798 263.907 187.798 262.875Z" fill="#AB4040"/>
<path fill-rule="evenodd" clip-rule="evenodd" d="M166.928 237.16C169.296 234.988 175.689 228.914 179.235 225.537L177.438 223.743C176.706 223.013 175.52 223.013 174.789 223.743L159.434 239.062C158.255 240.239 159.091 242.253 160.759 242.253H162.555C163.59 242.253 164.429 243.089 164.429 244.122V262.875C164.429 263.907 165.267 264.743 166.302 264.743H169.011V242.22C169.011 242.22 163.576 240.232 166.928 237.16Z" fill="#F26A6A"/>
<path fill-rule="evenodd" clip-rule="evenodd" d="M192.792 239.062L193.305 238.55L177.951 223.231C177.445 222.727 176.776 222.471 176.114 222.472C175.451 222.471 174.781 222.727 174.276 223.231L158.921 238.55C158.403 239.064 158.154 239.733 158.157 240.37C158.158 241.038 158.413 241.678 158.867 242.165C159.319 242.653 159.994 242.979 160.759 242.977H162.555C163.189 242.978 163.702 243.49 163.703 244.121V262.875C163.704 264.307 164.867 265.467 166.302 265.467H185.925C187.36 265.467 188.523 264.307 188.523 262.875V244.121C188.524 243.489 189.037 242.978 189.671 242.977H191.467C192.233 242.979 192.907 242.653 193.36 242.166C193.814 241.679 194.069 241.038 194.07 240.37C194.073 239.733 193.823 239.064 193.305 238.55L192.792 239.062L192.279 239.574C192.523 239.821 192.616 240.089 192.618 240.37C192.62 240.663 192.5 240.964 192.299 241.178C192.094 241.391 191.831 241.526 191.467 241.529H189.671C188.235 241.529 187.072 242.689 187.072 244.121V262.875C187.071 263.506 186.558 264.018 185.925 264.02H166.302C165.668 264.018 165.156 263.507 165.155 262.875V244.121C165.154 242.689 163.991 241.529 162.555 241.529H160.759C160.395 241.526 160.132 241.391 159.928 241.178C159.726 240.964 159.607 240.663 159.608 240.37C159.611 240.089 159.703 239.821 159.948 239.574L175.302 224.255C175.528 224.03 175.817 223.921 176.114 223.92C176.41 223.921 176.699 224.03 176.925 224.255L192.279 239.574L192.792 239.062Z" fill="#22215B"/>
<path fill-rule="evenodd" clip-rule="evenodd" d="M154.771 265.368L86.8958 265.345C83.3473 265.343 80.4454 262.446 80.4464 258.905L80.4618 214.97C80.4628 211.43 83.3672 208.535 86.9152 208.536L154.79 208.56C158.339 208.56 161.241 211.458 161.24 214.999L161.225 258.933C161.223 262.474 158.32 265.369 154.771 265.368Z" fill="#8CB7D7"/>
<path fill-rule="evenodd" clip-rule="evenodd" d="M86.9151 208.536C86.9151 208.536 85.349 211.688 89.1714 211.689C92.9943 211.69 152.411 211.711 152.411 211.711C152.411 211.711 155.574 212.131 155.575 208.609L86.9151 208.536Z" fill="#AED7E8"/>
<path fill-rule="evenodd" clip-rule="evenodd" d="M153.578 230.566L151.493 234.953C151.493 234.953 103.354 223.621 91.5496 225.003C81.6357 226.163 80.5529 221.953 80.4597 220.573L80.4464 258.905C80.4454 262.446 83.3473 265.343 86.8958 265.344L154.771 265.367C158.32 265.369 161.223 262.474 161.225 258.933L161.234 230.458C158.446 232.919 153.578 230.566 153.578 230.566Z" fill="#6E9EBA"/>
<path fill-rule="evenodd" clip-rule="evenodd" d="M154.771 265.368L154.772 264.644L86.8958 264.62C85.3225 264.62 83.8946 263.979 82.8537 262.941C81.8144 261.902 81.1724 260.478 81.1724 258.908V258.907L80.5253 258.907L81.1719 258.917L81.1724 258.907L80.5253 258.907L81.1719 258.917L81.1724 258.906L81.1872 214.971C81.1883 213.4 81.8308 211.976 82.8706 210.938C83.912 209.9 85.3399 209.26 86.9137 209.26V208.82L86.9122 209.26H86.9137V208.82L86.9122 209.26L86.9142 208.562L86.8881 209.259L86.9122 209.26L86.9142 208.562L86.8881 209.259L86.9152 209.26L154.79 209.284C156.364 209.284 157.792 209.925 158.832 210.963C159.872 212.002 160.514 213.426 160.514 214.996V215L160.514 215.023L161.24 214.999H160.514L160.499 258.933C160.498 260.503 159.856 261.927 158.816 262.966C157.775 264.003 156.347 264.644 154.774 264.644V265.151L154.776 264.644H154.774V265.151L154.776 264.644L154.733 264.645L154.771 265.368L154.772 264.644L154.771 265.368L154.809 266.091L154.773 265.396L154.776 266.092L154.809 266.091L154.773 265.396L154.776 266.092L154.773 265.461L154.771 266.092H154.776L154.773 265.461L154.771 266.092H154.774C158.725 266.089 161.946 262.876 161.95 258.933L161.965 214.999V214.975L161.288 214.997L161.965 214.994V214.975L161.288 214.997L161.965 214.994L161.369 214.997L161.965 214.997V214.994L161.369 214.997L161.965 214.997V214.996C161.963 211.054 158.742 207.84 154.791 207.835L86.9157 207.811L86.9152 208.536L86.9429 207.811H86.9168H86.9122L86.9137 208.348V207.811H86.9122L86.9137 208.348V207.811C82.9623 207.815 79.7404 211.028 79.7363 214.97L79.7209 258.905H80.4464L79.7209 258.894V258.908C79.7235 262.85 82.9438 266.064 86.8953 266.068L154.771 266.092L154.809 266.091L154.771 265.368Z" fill="#22215B"/>
<path fill-rule="evenodd" clip-rule="evenodd" d="M149.633 260.005L92.0376 259.985C89.0993 259.984 86.6961 257.584 86.6971 254.653L86.7099 219.227C86.711 216.296 89.1157 213.898 92.054 213.899L149.649 213.919C152.586 213.92 154.99 216.32 154.989 219.251L154.976 254.676C154.976 257.608 152.571 260.006 149.633 260.005Z" fill="#FFFFFE"/>
<path fill-rule="evenodd" clip-rule="evenodd" d="M92.0376 259.985L149.633 260.005C152.571 260.006 154.976 257.608 154.976 254.676L154.983 236.488L151.494 232.108C149.977 230.204 147.08 230.203 145.562 232.106L132.667 248.269L128.339 242.836C126.736 240.824 123.675 240.823 122.07 242.833L117.449 248.626L103.564 231.197C101.972 229.199 98.9277 229.208 97.3478 231.216L86.7007 244.751L86.6971 254.653C86.6961 257.584 89.0993 259.984 92.0376 259.985Z" fill="#FFFFFE"/>
<path fill-rule="evenodd" clip-rule="evenodd" d="M117.449 248.626L103.564 231.197C101.973 229.199 98.9278 229.208 97.3479 231.216L96.4094 232.409L116.429 254.714C116.429 254.714 118.662 253.228 117.449 248.626Z" fill="#CBE5E9"/>
<path fill-rule="evenodd" clip-rule="evenodd" d="M131.957 256.19C131.957 256.19 135.633 253.587 132.667 248.269L128.339 242.836C126.736 240.824 123.674 240.823 122.07 242.833L121.292 243.808L131.957 256.19Z" fill="#CBE5E9"/>
<path fill-rule="evenodd" clip-rule="evenodd" d="M151.494 232.108C149.977 230.204 147.079 230.203 145.561 232.106L145.163 232.605L154.98 245.484L154.983 236.488L151.494 232.108Z" fill="#CBE5E9"/>
<path fill-rule="evenodd" clip-rule="evenodd" d="M92.0376 259.985V260.709L149.632 260.729H149.643L149.634 260.074V260.729H149.643L149.634 260.074V260.729C152.976 260.726 155.698 258.01 155.702 254.676L155.708 236.488C155.708 236.324 155.654 236.166 155.551 236.038L152.062 231.657C151.161 230.526 149.838 229.953 148.527 229.955C147.217 229.953 145.894 230.525 144.994 231.655L132.667 247.105L128.907 242.385C127.963 241.199 126.578 240.6 125.204 240.602C123.832 240.6 122.446 241.198 121.502 242.382L117.449 247.463L104.132 230.747C103.198 229.572 101.824 228.978 100.464 228.98C99.0941 228.978 97.7118 229.58 96.7769 230.769L86.1299 244.304C86.03 244.43 85.9753 244.589 85.9753 244.751L85.9717 254.652V254.648V254.654C85.9742 257.988 88.6959 260.705 92.0376 260.709V259.985L92.0381 259.261C90.7689 259.26 89.619 258.744 88.7788 257.907C87.9402 257.068 87.4231 255.921 87.4226 254.654H86.9782L87.4226 254.657V254.654H86.9782L87.4226 254.657L87.4231 254.653L87.4262 245.001L97.9186 231.663C98.5694 230.837 99.5104 230.43 100.464 230.428C101.411 230.43 102.345 230.832 102.996 231.648L116.881 249.077C117.018 249.249 117.228 249.35 117.448 249.35C117.669 249.35 117.88 249.249 118.017 249.077L122.638 243.284C123.298 242.458 124.244 242.051 125.204 242.05C126.164 242.051 127.111 242.459 127.771 243.286L132.099 248.719C132.236 248.891 132.446 248.992 132.667 248.992C132.887 248.992 133.098 248.891 133.235 248.719L146.129 232.557C146.746 231.785 147.63 231.405 148.527 231.403C149.424 231.405 150.309 231.785 150.926 232.558L154.258 236.741L154.251 254.676C154.25 255.942 153.733 257.09 152.894 257.927C152.053 258.764 150.903 259.281 149.634 259.281H149.624L149.633 259.935V259.281H149.624L149.633 259.935V259.281L92.0381 259.261L92.0376 259.985Z" fill="#22215B"/>
<path fill-rule="evenodd" clip-rule="evenodd" d="M149.633 260.005V259.281L92.0381 259.261C90.7689 259.26 89.619 258.744 88.7788 257.907C87.9402 257.068 87.4231 255.921 87.4226 254.654V254.654H86.7601L87.4226 254.663V254.654H86.7601L87.4226 254.663L87.4231 254.653L87.4354 219.228C87.4359 217.961 87.9535 216.814 88.7927 215.976C89.6328 215.14 90.7832 214.623 92.0519 214.623V214.185L92.0504 214.623H92.0519V214.185L92.0504 214.623L92.0529 213.926L92.0268 214.623L92.0504 214.623L92.0529 213.926L92.0268 214.623L92.0534 214.623L149.649 214.643C150.917 214.644 152.067 215.16 152.907 215.997C153.746 216.835 154.263 217.983 154.264 219.25V219.269L154.989 219.251H154.264L154.251 254.676C154.25 255.942 153.733 257.09 152.894 257.928C152.053 258.764 150.903 259.281 149.634 259.281V259.908L149.637 259.281H149.634V259.908L149.637 259.281L149.575 259.283L149.633 260.005V259.281V260.005L149.69 260.726L149.634 260.017L149.638 260.729L149.69 260.726L149.634 260.017L149.638 260.729L149.634 260.046L149.631 260.729H149.638L149.634 260.046L149.631 260.729H149.634C152.976 260.726 155.698 258.01 155.702 254.676L155.715 219.252V219.233L155.027 219.25H155.715V219.233L155.027 219.25H155.715V219.25C155.712 215.916 152.99 213.199 149.649 213.195L92.054 213.175V213.899L92.0811 213.176L92.055 213.175H92.0504L92.0519 213.709V213.175H92.0504L92.0519 213.709V213.175C88.7108 213.178 85.9881 215.893 85.984 219.227L85.9717 254.652L86.6972 254.653L85.9717 254.643V254.654C85.9742 257.988 88.6959 260.705 92.0376 260.709L149.632 260.729L149.69 260.726L149.633 260.005Z" fill="#22215B"/>
<path fill-rule="evenodd" clip-rule="evenodd" d="M140.964 227.503C140.963 230.659 138.398 233.217 135.234 233.216C132.07 233.215 129.506 230.655 129.507 227.499C129.508 224.342 132.074 221.784 135.238 221.785C138.401 221.786 140.965 224.346 140.964 227.503Z" fill="#99D3D1"/>
<path fill-rule="evenodd" clip-rule="evenodd" d="M135.234 231.47C132.369 231.469 130.003 229.367 129.582 226.626C129.537 226.911 129.507 227.201 129.507 227.499C129.506 230.655 132.07 233.215 135.234 233.216C138.398 233.217 140.963 230.659 140.964 227.503C140.964 227.205 140.935 226.915 140.891 226.63C140.468 229.371 138.1 231.471 135.234 231.47Z" fill="#46A09A"/>
<path fill-rule="evenodd" clip-rule="evenodd" d="M140.964 227.503L140.239 227.502C140.238 230.258 137.998 232.492 135.236 232.492H135.235L135.209 232.492L135.234 233.216V232.492C132.472 232.491 130.233 230.257 130.233 227.501V227.5H129.582L130.233 227.511L130.233 227.5H129.582L130.233 227.511L130.233 227.499C130.233 224.743 132.474 222.509 135.236 222.509H135.237V221.805L135.203 222.508L135.237 222.509V221.805L135.203 222.508L135.237 222.509C138 222.509 140.239 224.745 140.239 227.501V227.519L140.964 227.503L140.239 227.502L140.964 227.503L141.69 227.486L141.006 227.502H141.69L141.69 227.486L141.006 227.502H141.69V227.501C141.69 223.945 138.802 221.062 135.238 221.061V221.785L135.273 221.062L135.237 221.061H135.236C131.672 221.061 128.784 223.942 128.782 227.498L129.507 227.499L128.782 227.485V227.501C128.782 231.057 131.67 233.938 135.233 233.939H135.259L135.235 233.256V233.939H135.259L135.235 233.256V233.939H135.236C138.8 233.939 141.688 231.059 141.69 227.503L141.69 227.486L140.964 227.503Z" fill="#3F234F"/>
<path fill-rule="evenodd" clip-rule="evenodd" d="M143.583 116.402C141.408 116.402 139.309 116.727 137.331 117.325C133.721 102.152 120.053 90.8654 103.741 90.8654C87.5312 90.8654 73.9326 102.014 70.2218 117.044C68.5456 116.627 66.7931 116.402 64.9874 116.402C53.0988 116.402 43.4608 126.018 43.4608 137.879C43.4608 149.741 53.0988 159.356 64.9874 159.356H98.4767C100.193 159.618 101.952 159.755 103.741 159.755C105.532 159.755 107.29 159.618 109.007 159.356H143.583C155.471 159.356 165.108 149.741 165.108 137.879C165.108 126.018 155.471 116.402 143.583 116.402Z" fill="#567DF4"/>
<path fill-rule="evenodd" clip-rule="evenodd" d="M98.4766 159.356C100.193 159.618 101.951 159.755 103.741 159.755C105.532 159.755 107.29 159.618 109.006 159.356H143.583C155.471 159.356 165.108 149.741 165.108 137.879C165.108 126.018 155.471 116.402 143.583 116.402C141.408 116.402 139.309 116.727 137.33 117.325C137.33 117.325 155.575 119.735 155.575 137.676C155.575 155.616 139.556 154.362 139.556 154.362H60.8653C60.8653 154.362 56.1664 154.332 50.3406 153.613C54.183 157.175 59.3288 159.356 64.9872 159.356H98.4766Z" fill="#415EB6"/>
<path fill-rule="evenodd" clip-rule="evenodd" d="M73.758 122.47C73.758 122.47 85.4526 86.5679 121.949 96.0435C116.663 92.763 110.425 90.8654 103.741 90.8654C87.5312 90.8654 73.9326 102.014 70.2218 117.044C68.5456 116.627 66.7931 116.402 64.9874 116.402C53.0988 116.402 43.4608 126.018 43.4608 137.879C43.4608 141.196 44.2155 144.336 45.5609 147.14C45.8436 136.389 49.7233 117.903 73.758 122.47Z" fill="#DDEEFB"/>
<path fill-rule="evenodd" clip-rule="evenodd" d="M144.717 243.191L69.9109 250.397C66.0004 250.773 62.4918 247.89 62.1145 243.988L57.4289 195.566C57.0515 191.665 59.9422 188.165 63.8526 187.788L138.658 180.582C142.569 180.206 146.078 183.09 146.455 186.991L151.14 235.413C151.518 239.315 148.627 242.815 144.717 243.191Z" fill="#8CB7D7"/>
<path fill-rule="evenodd" clip-rule="evenodd" d="M144.717 243.191L144.647 242.471L69.8415 249.676C69.6342 249.696 69.4283 249.706 69.2241 249.706C65.9715 249.708 63.1525 247.212 62.8366 243.918L58.1516 195.497C58.1316 195.29 58.1219 195.085 58.1219 194.881C58.1198 191.636 60.6208 188.823 63.9226 188.509L138.728 181.303C138.936 181.283 139.142 181.273 139.346 181.273C142.598 181.271 145.417 183.767 145.733 187.061L150.418 235.482C150.438 235.689 150.449 235.894 150.449 236.098C150.451 239.343 147.949 242.156 144.647 242.471L144.717 243.191L144.787 243.912C148.845 243.518 151.897 240.089 151.899 236.098C151.899 235.848 151.888 235.596 151.863 235.343L147.178 186.922C146.782 182.873 143.346 179.827 139.346 179.825C139.095 179.825 138.843 179.837 138.589 179.862L63.7833 187.067C59.7249 187.461 56.6725 190.89 56.6704 194.881C56.6704 195.131 56.6827 195.383 56.7068 195.636L61.3924 244.057C61.7876 248.107 65.224 251.152 69.2241 251.154C69.4744 251.154 69.7268 251.142 69.9808 251.118L144.787 243.912L144.717 243.191Z" fill="#22215B"/>
<path fill-rule="evenodd" clip-rule="evenodd" d="M138.48 237.828L75.0042 243.942C71.766 244.254 68.861 241.866 68.5482 238.635L64.7703 199.593C64.458 196.362 66.8515 193.463 70.0898 193.151L133.566 187.037C136.803 186.725 139.709 189.113 140.022 192.344L143.799 231.386C144.112 234.617 141.718 237.516 138.48 237.828Z" fill="#FFFFFE"/>
<path fill-rule="evenodd" clip-rule="evenodd" d="M75.0039 243.942L138.48 237.828C141.718 237.516 144.112 234.617 143.799 231.386L141.859 211.341L137.545 206.885C135.67 204.949 132.476 205.257 131.007 207.516L118.527 226.702L113.175 221.175C111.193 219.129 107.819 219.454 106.267 221.841L101.794 228.717L84.6265 210.988C82.6585 208.956 79.3035 209.29 77.7773 211.672L67.4917 227.722L68.5479 238.635C68.8607 241.866 71.7657 244.254 75.0039 243.942Z" fill="#FFFFFE"/>
<path fill-rule="evenodd" clip-rule="evenodd" d="M101.794 228.717L84.6269 210.988C82.6588 208.956 79.3039 209.29 77.7777 211.672L76.8715 213.086L101.321 235.534C101.321 235.534 103.623 233.659 101.794 228.717Z" fill="#D8FFFF"/>
<path fill-rule="evenodd" clip-rule="evenodd" d="M118.592 235.507C118.592 235.507 122.365 232.247 118.527 226.702L113.176 221.175C111.194 219.129 107.819 219.454 106.267 221.841L105.514 222.997L118.592 235.507Z" fill="#D8FFFF"/>
<path fill-rule="evenodd" clip-rule="evenodd" d="M137.546 206.885C135.67 204.949 132.477 205.257 131.007 207.516L130.622 208.108L142.819 221.256L141.86 211.341L137.546 206.885Z" fill="#D8FFFF"/>
<path fill-rule="evenodd" clip-rule="evenodd" d="M75.0042 243.942L75.0743 244.663L138.55 238.548C141.976 238.215 144.55 235.323 144.553 231.953C144.553 231.743 144.542 231.53 144.522 231.317L142.582 211.272C142.566 211.108 142.496 210.956 142.382 210.838L138.067 206.382C137.094 205.376 135.803 204.882 134.532 204.883C132.943 204.881 131.354 205.652 130.398 207.121L118.415 225.544L113.697 220.672C112.676 219.617 111.324 219.099 109.991 219.101C108.325 219.099 106.659 219.906 105.658 221.447L101.682 227.56L85.1484 210.486C84.1373 209.44 82.7975 208.928 81.4771 208.929C79.8157 208.927 78.1554 209.738 77.1662 211.282L66.8806 227.332C66.7936 227.467 66.7542 227.631 66.77 227.791L67.8257 238.705C68.1601 242.123 71.0589 244.691 74.4359 244.694C74.6468 244.694 74.8598 244.683 75.0738 244.663H75.0743L75.0042 243.942L74.935 243.221C74.7671 243.238 74.6007 243.245 74.4359 243.245C71.8063 243.247 69.525 241.229 69.2705 238.565L68.2384 227.901L78.3888 212.062C79.1015 210.951 80.2785 210.379 81.4771 210.377C82.4283 210.378 83.3739 210.738 84.1045 211.491L101.272 229.221C101.425 229.379 101.644 229.46 101.863 229.438C102.083 229.417 102.282 229.296 102.402 229.112L106.876 222.235C107.6 221.123 108.784 220.551 109.991 220.549C110.955 220.55 111.913 220.915 112.654 221.678L118.005 227.205C118.158 227.363 118.377 227.443 118.596 227.423C118.816 227.402 119.016 227.281 119.135 227.096L131.616 207.91C132.294 206.869 133.402 206.334 134.532 206.332C135.434 206.333 136.33 206.674 137.023 207.389L141.162 211.662L143.078 231.456C143.093 231.623 143.102 231.789 143.102 231.953C143.104 234.577 141.079 236.854 138.41 237.107L74.9345 243.221H74.935L75.0042 243.942Z" fill="#22215B"/>
<path fill-rule="evenodd" clip-rule="evenodd" d="M138.48 237.828L138.41 237.107L74.9345 243.221C74.767 243.238 74.6007 243.245 74.4358 243.245C71.8063 243.247 69.5249 241.228 69.2705 238.565L65.4926 199.523C65.4762 199.355 65.4685 199.189 65.4685 199.025C65.4665 196.402 67.4903 194.125 70.1593 193.871L133.635 187.757C133.803 187.741 133.969 187.733 134.134 187.733C136.763 187.731 139.045 189.751 139.3 192.414L143.077 231.456C143.093 231.623 143.102 231.789 143.102 231.953C143.104 234.577 141.079 236.853 138.41 237.107L138.55 238.548C141.976 238.215 144.55 235.323 144.552 231.953C144.552 231.743 144.543 231.53 144.522 231.317L140.744 192.274C140.41 188.857 137.511 186.287 134.134 186.285C133.923 186.285 133.71 186.295 133.496 186.316L70.02 192.43C66.5939 192.763 64.0191 195.656 64.0171 199.025C64.0171 199.236 64.0273 199.448 64.0478 199.662L67.8257 238.705C68.16 242.122 71.0588 244.691 74.4358 244.693C74.6467 244.693 74.8597 244.683 75.0737 244.663L138.55 238.548L138.48 237.828Z" fill="#22215B"/>
<path fill-rule="evenodd" clip-rule="evenodd" d="M125.449 202.932C125.785 206.411 123.232 209.503 119.745 209.839C116.258 210.175 113.159 207.626 112.822 204.148C112.485 200.669 115.039 197.577 118.526 197.241C122.013 196.905 125.112 199.452 125.449 202.932Z" fill="#34DEDE"/>
<path fill-rule="evenodd" clip-rule="evenodd" d="M119.559 207.915C116.401 208.22 113.568 206.155 112.81 203.178C112.792 203.497 112.79 203.82 112.822 204.148C113.159 207.627 116.258 210.175 119.745 209.839C123.232 209.503 125.786 206.411 125.449 202.932C125.417 202.604 125.354 202.288 125.275 201.978C125.102 205.044 122.717 207.611 119.559 207.915Z" fill="#11A4A4"/>
<path fill-rule="evenodd" clip-rule="evenodd" d="M125.449 202.932L124.727 203.001C124.745 203.185 124.753 203.367 124.753 203.547C124.753 206.397 122.58 208.84 119.675 209.119C119.491 209.136 119.309 209.145 119.128 209.145C116.272 209.145 113.823 206.976 113.544 204.078C113.527 203.895 113.518 203.712 113.518 203.532C113.518 200.682 115.691 198.24 118.595 197.962C118.78 197.944 118.962 197.935 119.143 197.935C121.999 197.935 124.447 200.104 124.727 203.001L125.449 202.932L126.171 202.862C125.817 199.216 122.744 196.487 119.143 196.487C118.916 196.487 118.687 196.498 118.456 196.521C114.801 196.873 112.067 199.939 112.067 203.532C112.067 203.759 112.077 203.988 112.1 204.217C112.454 207.864 115.528 210.592 119.128 210.593C119.355 210.593 119.584 210.582 119.814 210.56C123.469 210.206 126.204 207.139 126.204 203.547C126.204 203.32 126.194 203.092 126.171 202.862L125.449 202.932Z" fill="#22215B"/>
<path fill-rule="evenodd" clip-rule="evenodd" d="M132.26 159.356V191.054C132.26 191.454 132.585 191.778 132.986 191.778C133.387 191.778 133.712 191.454 133.712 191.054V159.356C133.712 158.956 133.387 158.633 132.986 158.633C132.585 158.633 132.26 158.956 132.26 159.356Z" fill="#22215B"/>
<path fill-rule="evenodd" clip-rule="evenodd" d="M71.692 159.356V196.41C71.692 196.81 72.0166 197.134 72.4175 197.134C72.8184 197.134 73.143 196.81 73.143 196.41V159.356C73.143 158.956 72.8184 158.633 72.4175 158.633C72.0166 158.633 71.692 158.956 71.692 159.356Z" fill="#22215B"/>
<path fill-rule="evenodd" clip-rule="evenodd" d="M75.0978 196.41C75.0978 197.886 73.8983 199.084 72.4176 199.084C70.937 199.084 69.7374 197.886 69.7374 196.41C69.7374 194.933 70.937 193.735 72.4176 193.735C73.8983 193.735 75.0978 194.933 75.0978 196.41Z" fill="#22215B"/>
<path fill-rule="evenodd" clip-rule="evenodd" d="M135.667 191.054C135.667 192.531 134.467 193.728 132.986 193.728C131.506 193.728 130.306 192.531 130.306 191.054C130.306 189.577 131.506 188.38 132.986 188.38C134.467 188.38 135.667 189.577 135.667 191.054Z" fill="#22215B"/>
<path fill-rule="evenodd" clip-rule="evenodd" d="M81.2415 259.795C81.1959 259.505 81.1724 259.209 81.1724 258.908V258.906L81.1754 250.039L85.9732 249.577L85.9716 254.652V254.648V254.654C85.9727 255.991 86.4104 257.228 87.1502 258.231L81.2415 259.795Z" fill="#52748B"/>
<path fill-rule="evenodd" clip-rule="evenodd" d="M80.4464 260.005L80.7039 250.085L81.1755 250.039L81.1724 258.906L81.1719 258.907H81.1724V258.908C81.1724 259.209 81.1959 259.506 81.2415 259.795L80.4464 260.005Z" fill="#281634"/>
<path fill-rule="evenodd" clip-rule="evenodd" d="M117.449 247.463L116.77 246.611L118.242 246.469L117.449 247.463ZM132.062 246.346L131.168 245.224L134.418 244.911L133.598 245.939L132.062 246.346Z" fill="#B6B8B5"/>
<path fill-rule="evenodd" clip-rule="evenodd" d="M88.6964 257.822C87.9069 256.992 87.4236 255.88 87.4226 254.657L87.4231 254.653L87.4247 249.437L109.762 247.285L113.36 251.295L88.6964 257.822ZM117.744 250.135C117.713 249.88 117.67 249.612 117.613 249.331C117.771 249.294 117.914 249.205 118.017 249.077L120.252 246.275L123.175 245.993L125.072 248.196L117.744 250.135ZM135.949 245.317L136.428 244.717L139.241 244.446L135.949 245.317Z" fill="#B6B8B5"/>
<path fill-rule="evenodd" clip-rule="evenodd" d="M113.36 251.295L109.762 247.285L115.048 246.777L116.881 249.077C117.018 249.249 117.228 249.35 117.449 249.35C117.449 249.35 117.449 249.35 117.449 249.35C117.505 249.35 117.56 249.344 117.613 249.331C117.67 249.612 117.713 249.88 117.744 250.135L113.36 251.295Z" fill="#90A5A9"/>
<path fill-rule="evenodd" clip-rule="evenodd" d="M125.072 248.196L123.175 245.994L129.447 245.39L130.531 246.751L125.072 248.196Z" fill="#90A5A9"/>
<path fill-rule="evenodd" clip-rule="evenodd" d="M117.449 249.35C117.448 249.35 117.448 249.35 117.448 249.35C117.228 249.35 117.018 249.249 116.881 249.077L115.048 246.777L116.77 246.611L117.449 247.463L118.243 246.469L120.252 246.276L118.017 249.077C117.914 249.206 117.771 249.294 117.613 249.331C117.56 249.344 117.505 249.35 117.449 249.35ZM130.531 246.751L129.447 245.39L131.168 245.224L132.062 246.346L130.531 246.751ZM133.598 245.939L134.418 244.911L136.428 244.717L135.949 245.317L133.598 245.939Z" fill="#281634"/>
<path fill-rule="evenodd" clip-rule="evenodd" d="M87.1503 258.231C86.4104 257.228 85.9727 255.991 85.9717 254.654V254.652L85.9732 249.577L87.4247 249.437L87.4231 254.653L87.4226 254.657C87.4236 255.88 87.907 256.992 88.6964 257.822L87.1503 258.231Z" fill="#281634"/>
<path fill-rule="evenodd" clip-rule="evenodd" d="M80.704 250.085L80.7127 249.745L147.697 242.209L139.241 244.446L136.428 244.717L134.418 244.91L131.168 245.224L129.447 245.39L123.175 245.993L120.252 246.275L118.243 246.468L116.77 246.61L115.048 246.776L109.762 247.285L87.4247 249.437L85.9732 249.577L81.1755 250.039L80.704 250.085Z" fill="#281634"/>
<path fill-rule="evenodd" clip-rule="evenodd" d="M185.892 216.793C185.892 218.028 184.888 219.03 183.65 219.03C182.412 219.03 181.408 218.028 181.408 216.793C181.408 215.558 182.412 214.556 183.65 214.556C184.888 214.556 185.892 215.558 185.892 216.793Z" fill="#22215B"/>
<path fill-rule="evenodd" clip-rule="evenodd" d="M200.611 218.844C200.611 219.462 200.109 219.963 199.49 219.963C198.871 219.963 198.369 219.462 198.369 218.844C198.369 218.227 198.871 217.726 199.49 217.726C200.109 217.726 200.611 218.227 200.611 218.844Z" fill="#22215B"/>
<path fill-rule="evenodd" clip-rule="evenodd" d="M39.0519 147.14C39.0519 147.758 38.5501 148.259 37.9312 148.259C37.3122 148.259 36.8099 147.758 36.8099 147.14C36.8099 146.522 37.3122 146.022 37.9312 146.022C38.5501 146.022 39.0519 146.522 39.0519 147.14Z" fill="#22215B"/>
<path fill-rule="evenodd" clip-rule="evenodd" d="M184.771 153.891C184.771 154.509 184.269 155.01 183.65 155.01C183.031 155.01 182.53 154.509 182.53 153.891C182.53 153.274 183.031 152.773 183.65 152.773C184.269 152.773 184.771 153.274 184.771 153.891Z" fill="#22215B"/>
<path fill-rule="evenodd" clip-rule="evenodd" d="M63.1074 172.048C63.1074 172.666 62.6057 173.167 61.9862 173.167C61.3672 173.167 60.8655 172.666 60.8655 172.048C60.8655 171.431 61.3672 170.93 61.9862 170.93C62.6057 170.93 63.1074 171.431 63.1074 172.048Z" fill="#22215B"/>
<path fill-rule="evenodd" clip-rule="evenodd" d="M183.65 205.923C183.65 206.54 183.148 207.042 182.529 207.042C181.91 207.042 181.408 206.54 181.408 205.923C181.408 205.305 181.91 204.805 182.529 204.805C183.148 204.805 183.65 205.305 183.65 205.923Z" fill="#22215B"/>
<path fill-rule="evenodd" clip-rule="evenodd" d="M142.086 164.948C142.086 165.566 141.584 166.067 140.965 166.067C140.346 166.067 139.844 165.566 139.844 164.948C139.844 164.331 140.346 163.83 140.965 163.83C141.584 163.83 142.086 164.331 142.086 164.948Z" fill="#22215B"/>
<path fill-rule="evenodd" clip-rule="evenodd" d="M47.01 213.432C47.01 214.05 46.5083 214.55 45.8893 214.55C45.2698 214.55 44.7681 214.05 44.7681 213.432C44.7681 212.814 45.2698 212.313 45.8893 212.313C46.5083 212.313 47.01 212.814 47.01 213.432Z" fill="#22215B"/>
<path fill-rule="evenodd" clip-rule="evenodd" d="M37.1334 152.773C37.1334 154.008 36.1294 155.01 34.8915 155.01C33.6535 155.01 32.6495 154.008 32.6495 152.773C32.6495 151.538 33.6535 150.536 34.8915 150.536C36.1294 150.536 37.1334 151.538 37.1334 152.773Z" fill="#22215B"/>
<path fill-rule="evenodd" clip-rule="evenodd" d="M180.772 161.593C180.772 162.828 179.768 163.83 178.53 163.83C177.292 163.83 176.288 162.828 176.288 161.593C176.288 160.358 177.292 159.356 178.53 159.356C179.768 159.356 180.772 160.358 180.772 161.593Z" fill="#22215B"/>
<path fill-rule="evenodd" clip-rule="evenodd" d="M40.1729 224.789C40.1729 226.024 39.1689 227.025 37.9309 227.025C36.6924 227.025 35.689 226.024 35.689 224.789C35.689 223.553 36.6924 222.552 37.9309 222.552C39.1689 222.552 40.1729 223.553 40.1729 224.789Z" fill="#22215B"/>
<path fill-rule="evenodd" clip-rule="evenodd" d="M52.5825 178.317C52.5825 179.552 51.579 180.553 50.3406 180.553C49.1026 180.553 48.0991 179.552 48.0991 178.317C48.0991 177.082 49.1026 176.08 50.3406 176.08C51.579 176.08 52.5825 177.082 52.5825 178.317Z" fill="#22215B"/>
<path fill-rule="evenodd" clip-rule="evenodd" d="M80.8161 240.143L58.2206 217.599C57.1439 216.524 55.3986 216.524 54.3219 217.599L31.7263 240.143C29.9897 241.875 31.2195 244.838 33.6754 244.838H36.3187C37.8414 244.838 39.0757 246.069 39.0757 247.588V275.187C39.0757 276.706 40.3096 277.937 41.8322 277.937H70.7102C72.2328 277.937 73.4667 276.706 73.4667 275.187V247.588C73.4667 246.069 74.7011 244.838 76.2237 244.838H78.867C81.323 244.838 82.5527 241.875 80.8161 240.143Z" fill="#FFDE6C"/>
<path fill-rule="evenodd" clip-rule="evenodd" d="M73.4666 275.187V247.588C73.4666 246.069 74.701 244.838 76.2231 244.838H78.8669C81.3229 244.838 82.5526 241.875 80.816 240.143L77.7032 237.037C77.843 239.492 77.3525 241.711 75.1157 241.711C70.1106 241.711 70.6814 247.836 70.6814 254.673C70.6814 259.859 70.6702 272.253 70.6651 277.937H70.7101C72.2327 277.937 73.4666 276.706 73.4666 275.187Z" fill="#CC8900"/>
<path fill-rule="evenodd" clip-rule="evenodd" d="M42.7533 237.342C46.2388 234.146 55.6458 225.207 60.8654 220.237L58.2206 217.599C57.1439 216.524 55.3986 216.524 54.3219 217.599L31.7263 240.143C29.9897 241.875 31.2195 244.838 33.6754 244.838H36.3187C37.8414 244.838 39.0757 246.069 39.0757 247.588V275.187C39.0757 276.706 40.3096 277.937 41.8322 277.937H45.8185V244.79C45.8185 244.79 37.8209 241.865 42.7533 237.342Z" fill="#FFB110"/>
<path fill-rule="evenodd" clip-rule="evenodd" d="M80.8161 240.143L81.3296 239.631L58.7335 217.087C58.0552 216.409 57.1597 216.068 56.2709 216.069C55.3826 216.068 54.4872 216.409 53.8088 217.087L31.2128 239.631C30.5144 240.325 30.1847 241.214 30.1878 242.068C30.1888 242.962 30.5313 243.825 31.1406 244.477C31.7473 245.13 32.6437 245.565 33.6754 245.562H36.3187C36.8819 245.562 37.3851 245.788 37.7548 246.155C38.1234 246.524 38.3497 247.026 38.3497 247.588V275.187C38.3502 277.106 39.9087 278.661 41.8322 278.661H70.7102C72.6337 278.661 74.1921 277.106 74.1926 275.187V247.588C74.1926 247.026 74.4184 246.524 74.7876 246.155C75.1572 245.788 75.6605 245.562 76.2236 245.562H78.867C79.8986 245.565 80.7951 245.13 81.4018 244.477C82.0105 243.825 82.3535 242.962 82.3546 242.068C82.3576 241.214 82.0279 240.325 81.3296 239.631L80.3031 240.655C80.7275 241.082 80.9005 241.57 80.9036 242.068C80.9046 242.587 80.6973 243.11 80.341 243.489C79.9815 243.868 79.4972 244.111 78.867 244.114H76.2236C74.3002 244.115 72.7417 245.669 72.7412 247.588V275.187C72.7407 275.749 72.5149 276.251 72.1463 276.62C71.7766 276.988 71.2733 277.213 70.7102 277.213H41.8322C41.269 277.213 40.7657 276.988 40.3961 276.62C40.0275 276.251 39.8017 275.749 39.8012 275.187V247.588C39.8006 245.669 38.2422 244.115 36.3187 244.114H33.6754C33.0451 244.111 32.5603 243.868 32.2014 243.489C31.8451 243.11 31.6377 242.587 31.6387 242.068C31.6418 241.57 31.8148 241.082 32.2393 240.655L54.8353 218.11C55.2337 217.714 55.7492 217.518 56.2709 217.517C56.7931 217.518 57.3087 217.714 57.707 218.11L80.3031 240.655L80.8161 240.143Z" fill="#22215B"/>
</svg>
